<svg xmlns="http://www.w3.org/2000/svg" width="360" height="480" viewBox="0 0 360 480" role="img" aria-label="Book cover placeholder">
  <defs>
    <linearGradient id="cover" x1="0" y1="0" x2="1" y2="1">
      <stop offset="0" stop-color="#183b36"/>
      <stop offset="0.56" stop-color="#0b171f"/>
      <stop offset="1" stop-color="#050912"/>
    </linearGradient>
    <linearGradient id="accent" x1="0" y1="0" x2="1" y2="0">
      <stop offset="0" stop-color="#f4e900"/>
      <stop offset="1" stop-color="#28e6c2"/>
    </linearGradient>
  </defs>
  <rect width="360" height="480" rx="28" fill="url(#cover)"/>
  <rect x="20" y="20" width="320" height="440" rx="22" fill="none" stroke="#f4e900" stroke-opacity=".28" stroke-width="2"/>
  <rect x="62" y="82" width="236" height="300" rx="18" fill="#ffffff" fill-opacity=".04" stroke="#ffffff" stroke-opacity=".12"/>
  <path d="M118 152h58c18 0 32 14 32 32v112c0 18-14 32-32 32h-58V152Z" fill="none" stroke="#f4e900" stroke-width="10" stroke-linejoin="round"/>
  <path d="M242 152h-34v176h34c18 0 32-14 32-32V184c0-18-14-32-32-32Z" fill="none" stroke="#28e6c2" stroke-width="10" stroke-linejoin="round"/>
  <rect x="88" y="402" width="184" height="8" rx="4" fill="url(#accent)"/>
  <text x="180" y="438" text-anchor="middle" font-family="Arial, Helvetica, sans-serif" font-size="24" font-weight="800" fill="#ffffff" fill-opacity=".72">LMS STANDARD</text>
</svg>
