<svg xmlns="http://www.w3.org/2000/svg" viewBox="0 0 64 64">
  <rect width="64" height="64" rx="14" fill="#071f1c"/>
  <path d="M16 17.5c6.8 0 11.4 1.3 16 4.4 4.6-3.1 9.2-4.4 16-4.4v27.8c-6.4 0-11.2 1.2-16 4.2-4.8-3-9.6-4.2-16-4.2V17.5Z" fill="none" stroke="#ffea00" stroke-width="4" stroke-linejoin="round"/>
  <path d="M32 21.9v27.6" stroke="#ffea00" stroke-width="4" stroke-linecap="round"/>
  <path d="M22 25.5c2.6.3 5 1 7 2.2M22 33c2.6.3 5 1 7 2.2M42 25.5c-2.6.3-5 1-7 2.2M42 33c-2.6.3-5 1-7 2.2" stroke="#ffea00" stroke-width="3" stroke-linecap="round"/>
</svg>
